<svg width="124" height="24" viewBox="0 0 124 24" fill="none" xmlns="http://www.w3.org/2000/svg">
<path d="M11.8438 8.4815C10.9608 8.503 10.0922 8.71501 9.29354 9.10435C7.73033 9.8598 6.52653 11.2316 5.95397 12.9117C5.38992 14.5693 5.48823 16.3905 6.22731 17.9732L6.22761 17.9738C6.34976 18.234 6.47593 18.4579 6.61374 18.6842C6.49874 18.7945 5.41556 19.8968 5.2998 20.0146C5.15169 19.9514 5.00476 19.917 4.85859 19.9119C4.64236 19.9042 4.44691 19.9603 4.27294 20.0489C3.94005 20.2185 3.65886 20.5253 3.42918 20.7714C3.3735 20.8311 3.32004 20.8883 3.26688 20.9434C3.1868 21.0263 3.104 21.1101 3.0202 21.1952C2.72599 21.4941 2.72568 21.976 2.99998 22.2815C3.59662 22.9459 3.9088 23.3443 4.25389 23.6824C4.7481 24.1665 5.48729 24.0609 5.92675 23.6101C5.96559 23.5702 6.0085 23.5274 6.05478 23.481C6.26245 23.2727 6.56386 22.9741 6.72012 22.6953C6.83217 22.4951 6.88949 22.2668 6.88506 22.035C6.88208 21.8402 6.83978 21.6747 6.78252 21.5243C6.87033 21.4324 7.91462 20.3535 7.9951 20.2623C9.1005 21.2252 10.6902 21.7579 12.0978 21.7307C13.8017 21.7024 15.426 20.9814 16.6172 19.7242C17.8218 18.4519 18.4792 16.7328 18.4404 14.9547C18.4067 13.2023 17.6966 11.5362 16.4681 10.3258C15.2277 9.09783 13.5621 8.43397 11.8438 8.4815ZM12.0319 11.2758C14.0765 11.2758 15.7306 12.9823 15.7307 15.0829C15.7307 17.1835 14.0766 18.8902 12.0319 18.8902C9.98735 18.8901 8.33348 17.1835 8.33348 15.0829C8.33355 12.9823 9.98739 11.2759 12.0319 11.2758ZM12.9451 0.341213C12.3922 -0.11373 11.6078 -0.113745 11.0549 0.341213L0.570354 8.96824C0.16048 9.30555 -0.0517197 9.83783 0.0107822 10.3759L0.579729 15.2691C0.671278 16.0564 1.31881 16.6461 2.08443 16.6461H2.54908C3.07641 16.6461 3.49084 16.178 3.44586 15.6331L3.0814 11.2254C3.05542 10.911 3.18439 10.6034 3.42623 10.4072L11.3218 4.00361C11.651 3.73663 12.1146 3.73359 12.4471 3.99632L20.5638 10.4102C20.8113 10.6058 20.9443 10.9172 20.918 11.2357L20.5544 15.6331C20.5094 16.178 20.9236 16.646 21.4509 16.6461H21.9156C22.6812 16.6461 23.329 16.0564 23.4206 15.2691L23.9892 10.3759C24.0517 9.8378 23.8396 9.30555 23.4296 8.96824L21.0589 7.01733C21.0651 6.06681 21.0651 5.02596 21.0651 4.04584C21.0651 3.18058 20.3843 2.48293 19.5493 2.48293H18.9736C18.1385 2.48295 17.4581 3.18059 17.458 4.04584V4.05435L12.9451 0.341213Z" fill="#FEFEFE"/>
<path d="M30 19.434V4.73399H32.94V10.467L38.19 4.73399H41.802L36.405 10.551L41.97 19.434H38.379L34.305 12.819L32.94 14.289V19.434H30Z" fill="white"/>
<path d="M46.6575 19.686C45.6495 19.686 44.7395 19.455 43.9275 18.993C43.1155 18.517 42.4715 17.859 41.9955 17.019C41.5335 16.179 41.3025 15.227 41.3025 14.163C41.3025 13.071 41.5335 12.105 41.9955 11.265C42.4715 10.425 43.1155 9.774 43.9275 9.312C44.7395 8.836 45.6565 8.598 46.6785 8.598C47.7005 8.598 48.6175 8.836 49.4295 9.312C50.2415 9.774 50.8785 10.425 51.3405 11.265C51.8165 12.091 52.0545 13.05 52.0545 14.142C52.0545 15.234 51.8165 16.2 51.3405 17.04C50.8645 17.866 50.2205 18.517 49.4085 18.993C48.6105 19.455 47.6935 19.686 46.6575 19.686ZM46.6575 17.145C47.1195 17.145 47.5255 17.033 47.8755 16.809C48.2255 16.585 48.5055 16.249 48.7155 15.801C48.9395 15.353 49.0515 14.8 49.0515 14.142C49.0515 13.484 48.9465 12.931 48.7365 12.483C48.5265 12.035 48.2395 11.699 47.8755 11.475C47.5255 11.251 47.1265 11.139 46.6785 11.139C46.2445 11.139 45.8455 11.251 45.4815 11.475C45.1175 11.699 44.8305 12.035 44.6205 12.483C44.4105 12.931 44.3055 13.484 44.3055 14.142C44.3055 14.8 44.4105 15.353 44.6205 15.801C44.8305 16.249 45.1105 16.585 45.4605 16.809C45.8245 17.033 46.2235 17.145 46.6575 17.145Z" fill="white"/>
<path d="M57.5839 19.686C56.6039 19.686 55.7569 19.532 55.0429 19.224C54.3289 18.902 53.7689 18.475 53.3629 17.943C52.9569 17.397 52.7189 16.781 52.6489 16.095H55.5889C55.6449 16.347 55.7499 16.578 55.9039 16.788C56.0719 16.984 56.2889 17.145 56.5549 17.271C56.8349 17.397 57.1639 17.46 57.5419 17.46C57.9059 17.46 58.1999 17.411 58.4239 17.313C58.6619 17.201 58.8369 17.061 58.9489 16.893C59.0749 16.725 59.1379 16.543 59.1379 16.347C59.1379 16.067 59.0539 15.85 58.8859 15.696C58.7179 15.542 58.4729 15.416 58.1509 15.318C57.8289 15.22 57.4439 15.129 56.9959 15.045C56.4919 14.933 55.9949 14.807 55.5049 14.667C55.0289 14.527 54.5949 14.345 54.2029 14.121C53.8249 13.883 53.5239 13.589 53.2999 13.239C53.0759 12.889 52.9639 12.455 52.9639 11.937C52.9639 11.307 53.1319 10.74 53.4679 10.236C53.8179 9.732 54.3149 9.333 54.9589 9.039C55.6169 8.745 56.4009 8.598 57.3109 8.598C58.5989 8.598 59.6139 8.892 60.3559 9.48C61.1119 10.054 61.5599 10.838 61.6999 11.832H58.9279C58.8579 11.524 58.6829 11.286 58.4029 11.118C58.1229 10.95 57.7519 10.866 57.2899 10.866C56.8139 10.866 56.4429 10.95 56.1769 11.118C55.9249 11.286 55.7989 11.51 55.7989 11.79C55.7989 11.972 55.8829 12.14 56.0509 12.294C56.2189 12.434 56.4569 12.56 56.7649 12.672C57.0869 12.77 57.4789 12.868 57.9409 12.966C58.7669 13.134 59.4879 13.33 60.1039 13.554C60.7199 13.764 61.2029 14.072 61.5529 14.478C61.9029 14.87 62.0779 15.444 62.0779 16.2C62.0919 16.872 61.9099 17.474 61.5319 18.006C61.1679 18.538 60.6499 18.951 59.9779 19.245C59.3059 19.539 58.5079 19.686 57.5839 19.686Z" fill="white"/>
<path d="M68.9481 19.686C67.6321 19.686 66.5191 19.42 65.6091 18.888C64.7131 18.356 64.0411 17.621 63.5931 16.683C63.1591 15.731 62.9771 14.625 63.0471 13.365C63.1031 12.091 63.3551 10.915 63.8031 9.837C64.2511 8.759 64.8531 7.821 65.6091 7.023C66.3791 6.211 67.2681 5.588 68.2761 5.154C69.2981 4.706 70.4041 4.482 71.5941 4.482C73.3721 4.482 74.7581 4.93 75.7521 5.826C76.7461 6.722 77.2431 7.982 77.2431 9.606H74.0091C73.9811 8.822 73.7221 8.22 73.2321 7.8C72.7421 7.366 72.0351 7.149 71.1111 7.149C70.4111 7.149 69.7601 7.296 69.1581 7.59C68.5561 7.884 68.0311 8.297 67.5831 8.829C67.1351 9.361 66.7781 9.991 66.5121 10.719C66.2601 11.447 66.1131 12.245 66.0711 13.113C66.0291 13.939 66.1341 14.646 66.3861 15.234C66.6381 15.808 67.0161 16.256 67.5201 16.578C68.0381 16.886 68.6751 17.04 69.4311 17.04C70.3411 17.04 71.1041 16.844 71.7201 16.452C72.3361 16.06 72.7981 15.5 73.1061 14.772H76.3191C75.9551 15.794 75.4161 16.676 74.7021 17.418C74.0021 18.16 73.1621 18.727 72.1821 19.119C71.2021 19.497 70.1241 19.686 68.9481 19.686Z" fill="white"/>
<path d="M76.5966 19.434L79.2426 4.314H82.1826L81.1116 10.404C81.5596 9.858 82.0986 9.424 82.7286 9.102C83.3726 8.766 84.0796 8.598 84.8496 8.598C85.7316 8.598 86.4386 8.787 86.9706 9.165C87.5166 9.529 87.8806 10.068 88.0626 10.782C88.2586 11.482 88.2656 12.35 88.0836 13.386L87.0126 19.434H84.0936L85.1016 13.659C85.2556 12.833 85.1926 12.196 84.9126 11.748C84.6466 11.3 84.1426 11.076 83.4006 11.076C82.9386 11.076 82.5046 11.188 82.0986 11.412C81.7066 11.636 81.3706 11.951 81.0906 12.357C80.8246 12.763 80.6356 13.253 80.5236 13.827L79.5366 19.434H76.5966Z" fill="white"/>
<path d="M93.5236 19.686C92.5436 19.686 91.7036 19.49 91.0036 19.098C90.3036 18.706 89.7716 18.153 89.4076 17.439C89.0576 16.725 88.9106 15.892 88.9666 14.94C88.9946 14.058 89.1696 13.239 89.4916 12.483C89.8276 11.713 90.2826 11.041 90.8566 10.467C91.4446 9.879 92.1236 9.424 92.8936 9.102C93.6636 8.766 94.5176 8.598 95.4556 8.598C96.4216 8.598 97.2406 8.79399 97.9126 9.186C98.5985 9.578 99.1096 10.117 99.4456 10.803C99.7816 11.475 99.9286 12.252 99.8866 13.134C99.8866 13.428 99.8516 13.729 99.7816 14.037C99.7256 14.345 99.6626 14.625 99.5926 14.877H91.0246L91.3396 13.092H96.9676C97.0236 12.644 96.9746 12.266 96.8206 11.958C96.6666 11.636 96.4356 11.391 96.1276 11.223C95.8336 11.055 95.4836 10.971 95.0776 10.971C94.6016 10.971 94.1466 11.083 93.7126 11.307C93.2926 11.531 92.9286 11.86 92.6206 12.294C92.3126 12.728 92.1026 13.281 91.9906 13.953L91.8856 14.562C91.7876 15.094 91.8016 15.563 91.9276 15.969C92.0676 16.375 92.3056 16.697 92.6416 16.935C92.9776 17.173 93.4046 17.292 93.9226 17.292C94.4266 17.292 94.8606 17.187 95.2246 16.977C95.5886 16.767 95.8826 16.494 96.1066 16.158H99.1096C98.7876 16.83 98.3465 17.432 97.7866 17.964C97.2266 18.496 96.5826 18.916 95.8546 19.224C95.1266 19.532 94.3496 19.686 93.5236 19.686Z" fill="white"/>
<path d="M105.04 19.686C104.074 19.686 103.234 19.483 102.52 19.077C101.82 18.671 101.288 18.111 100.924 17.397C100.56 16.683 100.406 15.857 100.462 14.919C100.49 14.023 100.672 13.197 101.008 12.441C101.358 11.671 101.827 10.999 102.415 10.425C103.003 9.851 103.682 9.403 104.452 9.081C105.236 8.759 106.076 8.598 106.972 8.598C108.344 8.598 109.436 8.969 110.248 9.711C111.074 10.439 111.487 11.454 111.487 12.756H108.379C108.365 12.238 108.19 11.839 107.854 11.559C107.518 11.265 107.077 11.118 106.531 11.118C105.985 11.118 105.481 11.272 105.019 11.58C104.571 11.888 104.207 12.308 103.927 12.84C103.661 13.372 103.514 13.981 103.486 14.667C103.458 15.045 103.486 15.395 103.57 15.717C103.654 16.025 103.78 16.291 103.948 16.515C104.116 16.725 104.326 16.893 104.578 17.019C104.844 17.131 105.138 17.187 105.46 17.187C105.824 17.187 106.167 17.124 106.489 16.998C106.811 16.858 107.091 16.669 107.329 16.431C107.581 16.179 107.777 15.885 107.917 15.549H111.004C110.71 16.375 110.262 17.103 109.66 17.733C109.072 18.349 108.379 18.832 107.581 19.182C106.797 19.518 105.95 19.686 105.04 19.686Z" fill="white"/>
<path d="M118.781 19.434L115.085 13.533L119.936 8.85H123.527L117.458 14.373L117.689 12.735L122.288 19.434H118.781ZM111.494 19.434L114.182 4.314H117.122L114.434 19.434H111.494Z" fill="white"/>
</svg>
